<svg width="480" height="139" xmlns="http://www.w3.org/2000/svg"><path d="M394.349 38.677c14.06 0 25.83 4.749 35.52 14.437 9.69 9.687 14.629 21.463 14.629 35.519 0 14.058-4.94 25.835-14.63 35.521-9.69 9.689-21.46 14.436-35.52 14.436-13.87 0-25.83-4.747-35.52-14.436-9.69-9.686-14.63-21.463-14.63-35.521 0-14.056 4.94-25.832 14.63-35.519 9.69-9.688 21.65-14.437 35.52-14.437zm-78.45-24.124v26.593h23.55V60.9h-23.55v45.588c0 12.157 7.98 11.969 23.55 11.209v18.424c-31.34 3.799-44.07-4.748-44.07-29.633V60.9h-17.47V41.146h17.47V20.63l20.52-6.078zM122.7 3.156V136.12h-21.844V78.567H43.871v57.555H22.026V78.565H.182V57.671h21.844V3.157h21.845v54.516h56.985V3.156H122.7zm41.037 37.991v94.975h-20.514V41.147h20.514zm68.953-2.468c21.844 0 36.468 14.812 36.468 39.127v58.315h-20.51V79.896c0-14.247-8.17-22.034-21.276-22.034-14.437 0-24.125 8.93-24.125 27.351v50.908h-20.516V41.147h20.516v12.156c6.27-9.688 15.955-14.624 29.443-14.624zM394.35 58.622c-8.36 0-15.391 2.85-21.08 8.547-5.7 5.7-8.55 12.916-8.55 21.464 0 8.55 2.85 15.767 8.55 21.466 5.689 5.697 12.72 8.548 21.08 8.548 8.359 0 15.39-2.851 21.08-8.548 5.699-5.699 8.55-12.916 8.55-21.466 0-8.548-2.851-15.764-8.55-21.464-5.69-5.697-12.721-8.547-21.08-8.547zM43.87 57.674H22.027v20.891H43.87V57.674zm420.695-16.476c4.185 0 7.742 1.463 10.709 4.433 2.97 2.97 4.433 6.526 4.433 10.709s-1.462 7.739-4.433 10.709c-2.967 2.97-6.524 4.435-10.71 4.435-4.183 0-7.738-1.465-10.708-4.435-2.966-2.97-4.431-6.526-4.431-10.71 0-4.182 1.464-7.738 4.431-10.708 2.97-2.97 6.526-4.433 10.709-4.433zm0 1.253c-3.805 0-7.067 1.339-9.786 4.059-2.678 2.72-4.015 5.98-4.015 9.83 0 3.849 1.337 7.112 4.015 9.83 2.719 2.72 5.98 4.058 9.786 4.058 3.808 0 7.03-1.338 9.707-4.058 2.719-2.718 4.058-5.981 4.058-9.83 0-3.85-1.34-7.11-4.058-9.83-2.678-2.72-5.9-4.06-9.707-4.06zm.252 6.15c3.64 0 5.9 2.175 5.9 5.02 0 2.176-.88 3.68-2.637 4.56l3.221 5.898h-3.513l-2.719-5.23h-2.259v5.23h-3.221V48.6h5.228zm0 3.013h-2.007v4.309h2.007c1.673 0 2.678-.838 2.678-2.134 0-1.465-.88-2.175-2.678-2.175zM162.788 4.675c5.13 5.13 5.13 13.106-.189 18.424-5.128 5.13-13.107 5.13-18.427 0-5.128-5.318-5.128-13.294 0-18.424 5.131-5.319 13.488-5.319 18.616 0z" fill="#131D20"/></svg>